<svg width="24" height="24" viewBox="0 0 24 24" fill="none" xmlns="http://www.w3.org/2000/svg">
<g clip-path="url(#clip0_2_31)">
<path d="M23.9948 12.3514C24.1907 5.50359 18.6477 -0.0983397 11.8212 0.000933194C5.25093 0.0964819 -0.0500439 5.52262 0.000232626 12.0934C0.0363107 16.8017 2.78412 20.8641 6.75876 22.797C6.98867 22.9088 7.25483 22.7349 7.24523 22.4794C7.21625 21.7074 7.24122 20.882 7.39571 20.2185C7.54776 19.5652 8.14439 17.0388 8.53665 15.3791C8.72757 14.5712 8.75062 13.7322 8.59688 12.9163C8.54643 12.6486 8.50988 12.334 8.50988 11.9845C8.50988 10.2109 9.53788 8.88673 10.8179 8.88673C11.9061 8.88673 12.4318 9.70378 12.4318 10.6835C12.4318 11.7779 11.735 13.4141 11.3754 14.9304C11.0749 16.2 12.0121 17.2354 13.2642 17.2354C15.5313 17.2354 17.2739 14.8449 17.2739 11.3943C17.2739 8.34032 15.0795 6.20496 11.946 6.20496C8.31669 6.20496 6.1864 8.92717 6.1864 11.7404C6.1864 12.8367 6.60875 14.0123 7.13566 14.6514C7.23982 14.7776 7.25518 14.8884 7.22417 15.0172C7.12734 15.4201 6.91215 16.2865 6.8699 16.4638C6.81422 16.6973 6.68503 16.7467 6.44337 16.6344C4.85017 15.8928 3.85424 13.5637 3.85424 11.6929C3.85424 7.66921 6.77767 3.97412 12.2821 3.97412C16.7069 3.97412 20.1456 7.12711 20.1456 11.341C20.1456 15.737 17.3739 19.2748 13.5267 19.2748C12.51 19.2748 11.5412 18.8593 10.9716 18.296C10.7965 18.1228 10.5003 18.2017 10.4378 18.44C10.2373 19.2042 9.91303 20.4403 9.80858 20.8423C9.62051 21.5655 9.22417 22.4079 8.82685 23.1415C8.72129 23.3365 8.82807 23.5772 9.04297 23.6317C10.0239 23.8805 11.0527 24.0089 12.1133 23.9991C18.4101 23.9406 23.8148 18.646 23.9948 12.3514Z" fill="#3F3F3F"/>
</g>
<defs>
<clipPath id="clip0_2_31">
<rect width="24" height="24" fill="white"/>
</clipPath>
</defs>
</svg>
