<svg width="24" height="24" viewBox="0 0 24 24" fill="none" xmlns="http://www.w3.org/2000/svg">
<path d="M23.6183 4.34057C23.085 4.57703 22.5315 4.76357 21.9635 4.89862C22.5894 4.30388 23.0599 3.55999 23.3254 2.72967C23.4012 2.49262 23.1437 2.28765 22.9297 2.41457C22.1395 2.88327 21.2884 3.23488 20.3998 3.45975C20.3483 3.4728 20.2951 3.47941 20.2417 3.47941C20.0799 3.47941 19.9225 3.41932 19.7988 3.31025C18.8534 2.47706 17.6375 2.01819 16.3752 2.01819C15.829 2.01819 15.2775 2.10333 14.736 2.27126C13.0582 2.79163 11.7637 4.17556 11.3576 5.88301C11.2052 6.52345 11.164 7.16448 11.2349 7.78824C11.243 7.85992 11.2091 7.90995 11.1882 7.93342C11.1515 7.97455 11.0995 7.99813 11.0455 7.99813C11.0395 7.99813 11.0333 7.99784 11.0271 7.99725C7.35466 7.65606 4.04298 5.88675 1.70211 3.01533C1.58274 2.86887 1.35383 2.88684 1.25868 3.05003C0.800282 3.83647 0.558032 4.73595 0.558032 5.65123C0.558032 7.05394 1.12158 8.37584 2.10047 9.33952C1.68882 9.24192 1.2904 9.0882 0.920295 8.88264C0.741241 8.78316 0.520934 8.91102 0.518418 9.11582C0.492788 11.1996 1.71281 13.0538 3.54045 13.8888C3.50365 13.8897 3.46684 13.8901 3.42998 13.8901C3.14027 13.8901 2.84694 13.8621 2.55823 13.8069C2.35659 13.7684 2.18719 13.9597 2.2498 14.1552C2.84302 16.0072 4.43766 17.3724 6.34593 17.6823C4.76218 18.7455 2.91786 19.3063 0.998295 19.3063L0.399867 19.3059C0.215488 19.3059 0.0595472 19.4261 0.0125601 19.6047C-0.0337248 19.7806 0.0515308 19.9662 0.208759 20.0576C2.3718 21.3164 4.83907 21.9817 7.34489 21.9817C9.5383 21.9817 11.5901 21.5465 13.4432 20.688C15.1421 19.9011 16.6433 18.7761 17.9052 17.3445C19.0808 16.0108 20 14.4712 20.6374 12.7686C21.2449 11.1456 21.5661 9.41377 21.5661 7.76039V7.68163C21.566 7.41615 21.6861 7.16635 21.8956 6.99631C22.6905 6.35089 23.3827 5.59114 23.9529 4.73817C24.1035 4.51295 23.866 4.23068 23.6183 4.34057Z" fill="#3F3F3F"/>
</svg>
